<mxfile host="app.diagrams.net" agent="Mozilla/5.0 (Windows NT 10.0; Win64; x64) AppleWebKit/537.36 (KHTML, like Gecko) Chrome/138.0.0.0 Safari/537.36" version="27.1.6">
  <diagram name="NETSales" id="eU8foqScWneeLxpwDvI5">
    <mxGraphModel dx="1042" dy="527" grid="1" gridSize="10" guides="1" tooltips="1" connect="1" arrows="1" fold="1" page="1" pageScale="1" pageWidth="827" pageHeight="1169" math="0" shadow="0">
      <root>
        <mxCell id="0" />
        <mxCell id="1" parent="0" />
        <mxCell id="p-Vb6tkcDAvw4ic7Vn-Z-7" value="" style="edgeStyle=orthogonalEdgeStyle;rounded=0;orthogonalLoop=1;jettySize=auto;html=1;exitX=1;exitY=0.5;exitDx=0;exitDy=0;" parent="1" source="p-Vb6tkcDAvw4ic7Vn-Z-30" target="p-Vb6tkcDAvw4ic7Vn-Z-6" edge="1">
          <mxGeometry relative="1" as="geometry">
            <mxPoint x="70" y="60" as="sourcePoint" />
          </mxGeometry>
        </mxCell>
        <mxCell id="p-Vb6tkcDAvw4ic7Vn-Z-3" value="Início Jornada NETSales" style="text;html=1;align=center;verticalAlign=middle;whiteSpace=wrap;rounded=0;" parent="1" vertex="1">
          <mxGeometry x="20" y="90" width="60" height="30" as="geometry" />
        </mxCell>
        <mxCell id="p-Vb6tkcDAvw4ic7Vn-Z-9" value="" style="edgeStyle=orthogonalEdgeStyle;rounded=0;orthogonalLoop=1;jettySize=auto;html=1;" parent="1" source="p-Vb6tkcDAvw4ic7Vn-Z-6" target="p-Vb6tkcDAvw4ic7Vn-Z-8" edge="1">
          <mxGeometry relative="1" as="geometry" />
        </mxCell>
        <mxCell id="p-Vb6tkcDAvw4ic7Vn-Z-6" value="Prenchimento dados cadastrais, produtos e validações" style="whiteSpace=wrap;html=1;" parent="1" vertex="1">
          <mxGeometry x="100" y="30" width="120" height="60" as="geometry" />
        </mxCell>
        <mxCell id="p-Vb6tkcDAvw4ic7Vn-Z-11" value="" style="edgeStyle=orthogonalEdgeStyle;rounded=0;orthogonalLoop=1;jettySize=auto;html=1;" parent="1" source="p-Vb6tkcDAvw4ic7Vn-Z-8" target="p-Vb6tkcDAvw4ic7Vn-Z-10" edge="1">
          <mxGeometry relative="1" as="geometry" />
        </mxCell>
        <mxCell id="p-Vb6tkcDAvw4ic7Vn-Z-8" value="Definição de Método de pagamento" style="whiteSpace=wrap;html=1;" parent="1" vertex="1">
          <mxGeometry x="270" y="30" width="120" height="60" as="geometry" />
        </mxCell>
        <mxCell id="p-Vb6tkcDAvw4ic7Vn-Z-13" value="" style="edgeStyle=orthogonalEdgeStyle;rounded=0;orthogonalLoop=1;jettySize=auto;html=1;" parent="1" source="p-Vb6tkcDAvw4ic7Vn-Z-10" target="p-Vb6tkcDAvw4ic7Vn-Z-12" edge="1">
          <mxGeometry relative="1" as="geometry" />
        </mxCell>
        <mxCell id="p-Vb6tkcDAvw4ic7Vn-Z-14" value="Não" style="edgeLabel;html=1;align=center;verticalAlign=middle;resizable=0;points=[];" parent="p-Vb6tkcDAvw4ic7Vn-Z-13" vertex="1" connectable="0">
          <mxGeometry x="-0.16" y="-2" relative="1" as="geometry">
            <mxPoint as="offset" />
          </mxGeometry>
        </mxCell>
        <mxCell id="p-Vb6tkcDAvw4ic7Vn-Z-17" value="" style="edgeStyle=orthogonalEdgeStyle;rounded=0;orthogonalLoop=1;jettySize=auto;html=1;" parent="1" source="p-Vb6tkcDAvw4ic7Vn-Z-10" target="p-Vb6tkcDAvw4ic7Vn-Z-16" edge="1">
          <mxGeometry relative="1" as="geometry" />
        </mxCell>
        <mxCell id="p-Vb6tkcDAvw4ic7Vn-Z-18" value="Sim" style="edgeLabel;html=1;align=center;verticalAlign=middle;resizable=0;points=[];" parent="p-Vb6tkcDAvw4ic7Vn-Z-17" vertex="1" connectable="0">
          <mxGeometry x="-0.1733" y="2" relative="1" as="geometry">
            <mxPoint as="offset" />
          </mxGeometry>
        </mxCell>
        <mxCell id="p-Vb6tkcDAvw4ic7Vn-Z-10" value="PIX Automático?" style="rhombus;whiteSpace=wrap;html=1;fillColor=#fff2cc;strokeColor=#d6b656;" parent="1" vertex="1">
          <mxGeometry x="470" y="20" width="80" height="80" as="geometry" />
        </mxCell>
        <mxCell id="p-Vb6tkcDAvw4ic7Vn-Z-12" value="" style="ellipse;whiteSpace=wrap;html=1;" parent="1" vertex="1">
          <mxGeometry x="670" y="40" width="40" height="40" as="geometry" />
        </mxCell>
        <mxCell id="p-Vb6tkcDAvw4ic7Vn-Z-15" value="Processo AS-IS" style="text;html=1;align=center;verticalAlign=middle;whiteSpace=wrap;rounded=0;" parent="1" vertex="1">
          <mxGeometry x="660" y="80" width="60" height="30" as="geometry" />
        </mxCell>
        <mxCell id="p-Vb6tkcDAvw4ic7Vn-Z-20" value="" style="edgeStyle=orthogonalEdgeStyle;rounded=0;orthogonalLoop=1;jettySize=auto;html=1;" parent="1" source="p-Vb6tkcDAvw4ic7Vn-Z-16" target="p-Vb6tkcDAvw4ic7Vn-Z-19" edge="1">
          <mxGeometry relative="1" as="geometry" />
        </mxCell>
        <mxCell id="p-Vb6tkcDAvw4ic7Vn-Z-16" value="Coleta informações bancárias referente ao PIX (mesmas informações do DCC)" style="whiteSpace=wrap;html=1;fillColor=#fff2cc;strokeColor=#d6b656;" parent="1" vertex="1">
          <mxGeometry x="450" y="190" width="120" height="60" as="geometry" />
        </mxCell>
        <mxCell id="_kBCWVmg7MVMXb2cKWYf-1" style="edgeStyle=orthogonalEdgeStyle;rounded=0;orthogonalLoop=1;jettySize=auto;html=1;entryX=1;entryY=0.5;entryDx=0;entryDy=0;" parent="1" source="p-Vb6tkcDAvw4ic7Vn-Z-19" target="p-Vb6tkcDAvw4ic7Vn-Z-23" edge="1">
          <mxGeometry relative="1" as="geometry" />
        </mxCell>
        <mxCell id="p-Vb6tkcDAvw4ic7Vn-Z-19" value="Chama API (reuso) Bancos cadastrados BACEN" style="whiteSpace=wrap;html=1;fillColor=#fff2cc;strokeColor=#d6b656;" parent="1" vertex="1">
          <mxGeometry x="250" y="190" width="120" height="60" as="geometry" />
        </mxCell>
        <mxCell id="_kBCWVmg7MVMXb2cKWYf-7" value="" style="edgeStyle=orthogonalEdgeStyle;rounded=0;orthogonalLoop=1;jettySize=auto;html=1;" parent="1" source="p-Vb6tkcDAvw4ic7Vn-Z-21" target="_kBCWVmg7MVMXb2cKWYf-6" edge="1">
          <mxGeometry relative="1" as="geometry" />
        </mxCell>
        <mxCell id="p-Vb6tkcDAvw4ic7Vn-Z-21" value="Com NR de Contrato, chama API HUB Pagamento pra solicitar PIX&amp;nbsp;" style="whiteSpace=wrap;html=1;fillColor=#fff2cc;strokeColor=#d6b656;" parent="1" vertex="1">
          <mxGeometry x="50" y="290" width="120" height="60" as="geometry" />
        </mxCell>
        <mxCell id="_kBCWVmg7MVMXb2cKWYf-2" style="edgeStyle=orthogonalEdgeStyle;rounded=0;orthogonalLoop=1;jettySize=auto;html=1;entryX=0.5;entryY=0;entryDx=0;entryDy=0;" parent="1" source="p-Vb6tkcDAvw4ic7Vn-Z-23" target="p-Vb6tkcDAvw4ic7Vn-Z-21" edge="1">
          <mxGeometry relative="1" as="geometry" />
        </mxCell>
        <mxCell id="p-Vb6tkcDAvw4ic7Vn-Z-23" value="Grava proposta/contrato com método de pagamento BOLETO." style="whiteSpace=wrap;html=1;fillColor=#fff2cc;strokeColor=#d6b656;" parent="1" vertex="1">
          <mxGeometry x="50" y="190" width="120" height="60" as="geometry" />
        </mxCell>
        <mxCell id="p-Vb6tkcDAvw4ic7Vn-Z-30" value="" style="ellipse;whiteSpace=wrap;html=1;" parent="1" vertex="1">
          <mxGeometry x="30" y="40" width="40" height="40" as="geometry" />
        </mxCell>
        <mxCell id="p-Vb6tkcDAvw4ic7Vn-Z-31" value="" style="endArrow=classic;html=1;rounded=0;exitX=1;exitY=1;exitDx=0;exitDy=0;dashed=1;strokeColor=#B3B3B3;" parent="1" source="p-Vb6tkcDAvw4ic7Vn-Z-10" edge="1">
          <mxGeometry width="50" height="50" relative="1" as="geometry">
            <mxPoint x="390" y="300" as="sourcePoint" />
            <mxPoint x="650" y="170" as="targetPoint" />
          </mxGeometry>
        </mxCell>
        <mxCell id="p-Vb6tkcDAvw4ic7Vn-Z-32" value="Nova opção de meio de pagamento cadastrada no NETSMS" style="text;html=1;align=center;verticalAlign=middle;whiteSpace=wrap;rounded=0;fillColor=#eeeeee;strokeColor=#36393d;" parent="1" vertex="1">
          <mxGeometry x="660" y="130" width="150" height="60" as="geometry" />
        </mxCell>
        <mxCell id="p-Vb6tkcDAvw4ic7Vn-Z-33" value="Registrar dados bancários do Cliente. São os mesmos do débito em conta." style="text;html=1;align=center;verticalAlign=middle;whiteSpace=wrap;rounded=0;fillColor=#eeeeee;strokeColor=#36393d;" parent="1" vertex="1">
          <mxGeometry x="660" y="230" width="150" height="60" as="geometry" />
        </mxCell>
        <mxCell id="p-Vb6tkcDAvw4ic7Vn-Z-36" value="Validação de bancos autorizados pra PIX" style="text;html=1;align=center;verticalAlign=middle;whiteSpace=wrap;rounded=0;fillColor=#eeeeee;strokeColor=#36393d;" parent="1" vertex="1">
          <mxGeometry x="660" y="310" width="150" height="60" as="geometry" />
        </mxCell>
        <mxCell id="p-Vb6tkcDAvw4ic7Vn-Z-37" value="" style="endArrow=classic;html=1;rounded=0;exitX=1;exitY=0.5;exitDx=0;exitDy=0;dashed=1;strokeColor=#B3B3B3;entryX=0;entryY=0.5;entryDx=0;entryDy=0;" parent="1" source="p-Vb6tkcDAvw4ic7Vn-Z-16" target="p-Vb6tkcDAvw4ic7Vn-Z-33" edge="1">
          <mxGeometry width="50" height="50" relative="1" as="geometry">
            <mxPoint x="630" y="310" as="sourcePoint" />
            <mxPoint x="750" y="400" as="targetPoint" />
          </mxGeometry>
        </mxCell>
        <mxCell id="p-Vb6tkcDAvw4ic7Vn-Z-38" value="" style="endArrow=classic;html=1;rounded=0;exitX=0.75;exitY=1;exitDx=0;exitDy=0;dashed=1;strokeColor=#B3B3B3;entryX=0;entryY=0.25;entryDx=0;entryDy=0;" parent="1" source="p-Vb6tkcDAvw4ic7Vn-Z-19" target="p-Vb6tkcDAvw4ic7Vn-Z-36" edge="1">
          <mxGeometry width="50" height="50" relative="1" as="geometry">
            <mxPoint x="320" y="290" as="sourcePoint" />
            <mxPoint x="440" y="380" as="targetPoint" />
          </mxGeometry>
        </mxCell>
        <mxCell id="p-Vb6tkcDAvw4ic7Vn-Z-39" value="- Request com informações do cliente;&lt;div&gt;- HUB faz interface com o banco;&lt;/div&gt;&lt;div&gt;- Cliente recebe comunicado do banco e aprova o PIX recorrente;&lt;/div&gt;&lt;div&gt;- HUB recebe confirmação do Banco;&lt;/div&gt;&lt;div&gt;- HUB atualiza a base NETSMS com alteração de boleto para PIX Recorrente;&amp;nbsp;&lt;/div&gt;" style="text;html=1;align=left;verticalAlign=top;whiteSpace=wrap;rounded=0;fillColor=#eeeeee;strokeColor=#36393d;glass=0;shadow=0;" parent="1" vertex="1">
          <mxGeometry x="360" y="310" width="210" height="130" as="geometry" />
        </mxCell>
        <mxCell id="p-Vb6tkcDAvw4ic7Vn-Z-40" value="" style="endArrow=classic;html=1;rounded=0;exitX=1.047;exitY=0.647;exitDx=0;exitDy=0;dashed=1;strokeColor=#B3B3B3;entryX=0;entryY=0.5;entryDx=0;entryDy=0;exitPerimeter=0;" parent="1" source="p-Vb6tkcDAvw4ic7Vn-Z-21" target="p-Vb6tkcDAvw4ic7Vn-Z-39" edge="1">
          <mxGeometry width="50" height="50" relative="1" as="geometry">
            <mxPoint x="450" y="300" as="sourcePoint" />
            <mxPoint x="830" y="375" as="targetPoint" />
          </mxGeometry>
        </mxCell>
        <mxCell id="_kBCWVmg7MVMXb2cKWYf-3" value="" style="group" parent="1" vertex="1" connectable="0">
          <mxGeometry x="280" y="490" width="60" height="70" as="geometry" />
        </mxCell>
        <mxCell id="p-Vb6tkcDAvw4ic7Vn-Z-27" value="" style="ellipse;whiteSpace=wrap;html=1;" parent="_kBCWVmg7MVMXb2cKWYf-3" vertex="1">
          <mxGeometry x="10" width="40" height="40" as="geometry" />
        </mxCell>
        <mxCell id="p-Vb6tkcDAvw4ic7Vn-Z-28" value="Encerra Atendimento /Processo" style="text;html=1;align=center;verticalAlign=middle;whiteSpace=wrap;rounded=0;" parent="_kBCWVmg7MVMXb2cKWYf-3" vertex="1">
          <mxGeometry y="46" width="60" height="30" as="geometry" />
        </mxCell>
        <mxCell id="_kBCWVmg7MVMXb2cKWYf-9" value="" style="edgeStyle=orthogonalEdgeStyle;rounded=0;orthogonalLoop=1;jettySize=auto;html=1;" parent="1" source="_kBCWVmg7MVMXb2cKWYf-6" target="_kBCWVmg7MVMXb2cKWYf-8" edge="1">
          <mxGeometry relative="1" as="geometry" />
        </mxCell>
        <mxCell id="_kBCWVmg7MVMXb2cKWYf-6" value="Recebe confirmação do HUB que solicitação foi recebida (protocolo)" style="whiteSpace=wrap;html=1;fillColor=#fff2cc;strokeColor=#d6b656;" parent="1" vertex="1">
          <mxGeometry x="50" y="390" width="120" height="60" as="geometry" />
        </mxCell>
        <mxCell id="_kBCWVmg7MVMXb2cKWYf-10" style="edgeStyle=orthogonalEdgeStyle;rounded=0;orthogonalLoop=1;jettySize=auto;html=1;entryX=0;entryY=0.5;entryDx=0;entryDy=0;" parent="1" source="_kBCWVmg7MVMXb2cKWYf-8" target="p-Vb6tkcDAvw4ic7Vn-Z-27" edge="1">
          <mxGeometry relative="1" as="geometry" />
        </mxCell>
        <mxCell id="_kBCWVmg7MVMXb2cKWYf-8" value="Registra ocorrência no NETSMS com informação sobre solicitação de PIX" style="whiteSpace=wrap;html=1;fillColor=#fff2cc;strokeColor=#d6b656;" parent="1" vertex="1">
          <mxGeometry x="50" y="480" width="120" height="60" as="geometry" />
        </mxCell>
      </root>
    </mxGraphModel>
  </diagram>
</mxfile>
